<?xml version="1.0" encoding="UTF-8"?>
<!DOCTYPE svg PUBLIC "-//W3C//DTD SVG 1.1//EN" "http://www.w3.org/Graphics/SVG/1.1/DTD/svg11.dtd">
<!-- Creator: CorelDRAW -->
<svg xmlns="http://www.w3.org/2000/svg" xml:space="preserve" width="2.12085in" height="2.58406in" version="1.1" style="shape-rendering:geometricPrecision; text-rendering:geometricPrecision; image-rendering:optimizeQuality; fill-rule:evenodd; clip-rule:evenodd"
viewBox="0 0 377.21 459.6"
 xmlns:xlink="http://www.w3.org/1999/xlink"
 xmlns:xodm="http://www.corel.com/coreldraw/odm/2003">
 <defs>
  <style type="text/css">
   <![CDATA[
    .fil0 {fill:#0F0F11}
   ]]>
  </style>
 </defs>
 <g id="Layer_x0020_1">
  <metadata id="CorelCorpID_0Corel-Layer"/>
  <path class="fil0" d="M0.14 280.14c4.28,65.12 98.42,133.97 163.39,172.42 15.86,9.39 34.24,9.39 50.11,-0.01 52.97,-31.37 159.02,-102.63 163.43,-172.41l-376.92 0zm302.67 -162.41l74.4 105.8 0 -126.48c0,-20.52 -11.85,-38.03 -30.9,-45.66l-125.46 -50.22 81.96 116.56zm-228.42 0l82.79 -117.73 -126.49 51.28c-18.95,7.68 -30.7,25.13 -30.7,45.57l0 126.67 74.4 -105.8zm114.21 -8.75c35.22,0 63.77,28.55 63.77,63.77 0,35.22 -28.55,63.77 -63.77,63.77 -35.22,0 -63.77,-28.55 -63.77,-63.77 0,-35.22 28.55,-63.77 63.77,-63.77z"/>
 </g>
</svg>
